<?xml version="1.0" encoding="UTF-8" standalone="no"?>
<svg
   version="1"
   viewBox="0 0 48 48"
   enable-background="new 0 0 48 48"
   id="svg32"
   sodipodi:docname="icon-dark.svg"
   inkscape:version="1.1.2 (0a00cf5339, 2022-02-04)"
   xmlns:inkscape="http://www.inkscape.org/namespaces/inkscape"
   xmlns:sodipodi="http://sodipodi.sourceforge.net/DTD/sodipodi-0.dtd"
   xmlns="http://www.w3.org/2000/svg"
   xmlns:svg="http://www.w3.org/2000/svg">
  <defs
     id="defs36">
    <linearGradient
       id="linearGradient955"
       inkscape:swatch="solid">
      <stop
         style="stop-color:#d0cfeb;stop-opacity:1;"
         offset="0"
         id="stop953" />
    </linearGradient>
  </defs>
  <sodipodi:namedview
     id="namedview34"
     pagecolor="#ffffff"
     bordercolor="#666666"
     borderopacity="1.0"
     inkscape:pageshadow="2"
     inkscape:pageopacity="0.0"
     inkscape:pagecheckerboard="0"
     showgrid="false"
     inkscape:zoom="11.666667"
     inkscape:cx="24.514285"
     inkscape:cy="27.171428"
     inkscape:window-width="1920"
     inkscape:window-height="1012"
     inkscape:window-x="0"
     inkscape:window-y="0"
     inkscape:window-maximized="1"
     inkscape:current-layer="svg32" />
  <path
     fill="#cfd8dc"
     d="M 2.5073921,41.397314 V 15.067727 H 45.824903 v 26.329587 c 0,2.413545 -2.051882,4.388264 -4.559738,4.388264 H 7.0671301 c -2.5078559,0 -4.559738,-1.974719 -4.559738,-4.388264 z"
     id="path2"
     style="stroke-width:1.11829" />
  <path
     fill="#F44336"
     d="m 45.824903,10.679463 v 6.582396 H 2.5073921 v -6.582396 c 0,-2.4135457 2.0518821,-4.3882647 4.559738,-4.3882647 H 41.265165 c 2.507856,0 4.559738,1.974719 4.559738,4.3882647 z"
     id="path4"
     style="fill:#c44d58;fill-opacity:1;stroke-width:1.11829" />
  <g
     fill="#B71C1C"
     id="g10"
     style="fill:#ffffff;fill-opacity:1"
     transform="matrix(1.1399345,0,0,1.0970661,-3.1922804,-0.29119827)">
    <circle
       cx="33"
       cy="10"
       r="3"
       id="circle6"
       style="fill:#ffffff;fill-opacity:1" />
    <circle
       cx="15"
       cy="10"
       r="3"
       id="circle8"
       style="fill:#ffffff;fill-opacity:1" />
  </g>
  <path
     d="M 34.425558,3 C 33.17163,3 32.145689,3.9873595 32.145689,5.1941322 v 5.4853308 c 0,1.206772 1.025941,2.194132 2.279869,2.194132 1.253928,0 2.279869,-0.98736 2.279869,-2.194132 V 5.1941322 C 36.705427,3.9873595 35.679486,3 34.425558,3 Z"
     id="path12"
     style="fill:#b0bec5;stroke-width:1.11829" />
  <path
     d="m 13.906737,3 c -1.253928,0 -2.279869,0.9873595 -2.279869,2.1941322 v 5.4853308 c 0,1.206772 1.025941,2.194132 2.279869,2.194132 1.253928,0 2.279869,-0.98736 2.279869,-2.194132 V 5.1941322 C 16.186606,3.9873595 15.160665,3 13.906737,3 Z"
     id="path14"
     style="fill:#b0bec5;stroke-width:1.11829" />
  <g
     fill="#b0bec5"
     id="g28"
     transform="matrix(1.1399345,0,0,1.0970661,-3.1922804,-0.29119827)">
    <rect
       x="13"
       y="21"
       width="6"
       height="6"
       id="rect18" />
    <rect
       x="21"
       y="21"
       width="6"
       height="6"
       id="rect20" />
    <rect
       x="29"
       y="21"
       width="6"
       height="6"
       id="rect22" />
    <rect
       x="13"
       y="29"
       width="6"
       height="6"
       id="rect24" />
    <rect
       x="21"
       y="29"
       width="6"
       height="6"
       id="rect26" />
  </g>
  <rect
     x="29.86582"
     y="31.523718"
     fill="#f44336"
     width="6.8396068"
     height="6.5823965"
     id="rect30"
     style="stroke-width:1.11829" />
  <rect
     style="fill:#ffffff;fill-opacity:1;stroke:#676e78;stroke-width:1.04893;stroke-opacity:1;paint-order:stroke fill markers"
     id="rect951"
     width="40.759686"
     height="22.521097"
     x="3.6328428"
     y="19.105009"
     rx="1.9987595"
     ry="0.23590292" />
  <rect
     style="fill:#c44d58;fill-opacity:1;stroke:#b71c1c;stroke-width:1.11829;stroke-opacity:1;paint-order:stroke fill markers"
     id="rect1108"
     width="5.4547071"
     height="5.6322341"
     x="34.460056"
     y="33.360184"
     rx="1.9987611"
     ry="0.23590322" />
</svg>
