<?xml version="1.0" encoding="UTF-8" standalone="no"?>
<svg
   version="1"
   viewBox="0 0 48 48"
   enable-background="new 0 0 48 48"
   id="svg32"
   sodipodi:docname="icon.svg"
   inkscape:version="1.1.2 (0a00cf5339, 2022-02-04)"
   xmlns:inkscape="http://www.inkscape.org/namespaces/inkscape"
   xmlns:sodipodi="http://sodipodi.sourceforge.net/DTD/sodipodi-0.dtd"
   xmlns="http://www.w3.org/2000/svg"
   xmlns:svg="http://www.w3.org/2000/svg">
  <defs
     id="defs36">
    <linearGradient
       id="linearGradient955"
       inkscape:swatch="solid">
      <stop
         style="stop-color:#d0cfeb;stop-opacity:1;"
         offset="0"
         id="stop953" />
    </linearGradient>
  </defs>
  <sodipodi:namedview
     id="namedview34"
     pagecolor="#ffffff"
     bordercolor="#666666"
     borderopacity="1.0"
     inkscape:pageshadow="2"
     inkscape:pageopacity="0.0"
     inkscape:pagecheckerboard="0"
     showgrid="false"
     inkscape:zoom="11.666667"
     inkscape:cx="24.085714"
     inkscape:cy="24"
     inkscape:window-width="1920"
     inkscape:window-height="1012"
     inkscape:window-x="0"
     inkscape:window-y="0"
     inkscape:window-maximized="1"
     inkscape:current-layer="svg32" />
  <path
     fill="#CFD8DC"
     d="M5,38V14h38v24c0,2.2-1.8,4-4,4H9C6.8,42,5,40.2,5,38z"
     id="path2" />
  <path
     fill="#F44336"
     d="M43,10v6H5v-6c0-2.2,1.8-4,4-4h30C41.2,6,43,7.8,43,10z"
     id="path4" />
  <g
     fill="#B71C1C"
     id="g10">
    <circle
       cx="33"
       cy="10"
       r="3"
       id="circle6" />
    <circle
       cx="15"
       cy="10"
       r="3"
       id="circle8" />
  </g>
  <g
     fill="#B0BEC5"
     id="g16">
    <path
       d="M33,3c-1.1,0-2,0.9-2,2v5c0,1.1,0.9,2,2,2s2-0.9,2-2V5C35,3.9,34.1,3,33,3z"
       id="path12" />
    <path
       d="M15,3c-1.1,0-2,0.9-2,2v5c0,1.1,0.9,2,2,2s2-0.9,2-2V5C17,3.9,16.1,3,15,3z"
       id="path14" />
  </g>
  <g
     fill="#B0BEC5"
     id="g28">
    <rect
       x="13"
       y="21"
       width="6"
       height="6"
       id="rect18" />
    <rect
       x="21"
       y="21"
       width="6"
       height="6"
       id="rect20" />
    <rect
       x="29"
       y="21"
       width="6"
       height="6"
       id="rect22" />
    <rect
       x="13"
       y="29"
       width="6"
       height="6"
       id="rect24" />
    <rect
       x="21"
       y="29"
       width="6"
       height="6"
       id="rect26" />
  </g>
  <rect
     x="29"
     y="29"
     fill="#F44336"
     width="6"
     height="6"
     id="rect30" />
  <rect
     style="fill:#ffffff;stroke:#53535c;stroke-width:0.937974;stroke-opacity:1;paint-order:stroke fill markers"
     id="rect951"
     width="35.756165"
     height="20.528479"
     x="5.9872942"
     y="17.680071"
     rx="1.7533985"
     ry="0.21503073" />
  <rect
     style="fill:#f44336;fill-opacity:1;stroke:#b71c1c;stroke-opacity:1;paint-order:stroke fill markers"
     id="rect1108"
     width="4.7851057"
     height="5.1339059"
     x="30.214893"
     y="29"
     rx="1.7534"
     ry="0.215031" />
</svg>
