<?xml version="1.0" encoding="UTF-8" standalone="no"?>
<svg
   version="1"
   viewBox="0 0 48 48"
   enable-background="new 0 0 48 48"
   id="svg32"
   sodipodi:docname="icon-dark.svg"
   inkscape:version="1.1.2 (0a00cf5339, 2022-02-04)"
   xmlns:inkscape="http://www.inkscape.org/namespaces/inkscape"
   xmlns:sodipodi="http://sodipodi.sourceforge.net/DTD/sodipodi-0.dtd"
   xmlns="http://www.w3.org/2000/svg"
   xmlns:svg="http://www.w3.org/2000/svg">
  <defs
     id="defs36">
    <linearGradient
       id="linearGradient955"
       inkscape:swatch="solid">
      <stop
         style="stop-color:#d0cfeb;stop-opacity:1;"
         offset="0"
         id="stop953" />
    </linearGradient>
  </defs>
  <sodipodi:namedview
     id="namedview34"
     pagecolor="#ffffff"
     bordercolor="#666666"
     borderopacity="1.0"
     inkscape:pageshadow="2"
     inkscape:pageopacity="0.0"
     inkscape:pagecheckerboard="0"
     showgrid="false"
     inkscape:zoom="11.666667"
     inkscape:cx="24.428571"
     inkscape:cy="27.171428"
     inkscape:window-width="1920"
     inkscape:window-height="1012"
     inkscape:window-x="0"
     inkscape:window-y="0"
     inkscape:window-maximized="1"
     inkscape:current-layer="svg32" />
  <g
     id="g2934"
     transform="matrix(1.1399345,0,0,1.0970661,-3.1922804,-0.29119827)">
    <path
       fill="#cfd8dc"
       d="M 5,38 V 14 h 38 v 24 c 0,2.2 -1.8,4 -4,4 H 9 C 6.8,42 5,40.2 5,38 Z"
       id="path2" />
    <path
       fill="#F44336"
       d="m 43,10 v 6 H 5 V 10 C 5,7.8 6.8,6 9,6 h 30 c 2.2,0 4,1.8 4,4 z"
       id="path4"
       style="fill:#c44d58;fill-opacity:1" />
    <g
       fill="#B71C1C"
       id="g10"
       style="fill:#676e78;fill-opacity:1">
      <circle
         cx="33"
         cy="10"
         r="3"
         id="circle6"
         style="fill:#676e78;fill-opacity:1" />
      <circle
         cx="15"
         cy="10"
         r="3"
         id="circle8"
         style="fill:#676e78;fill-opacity:1" />
    </g>
    <path
       d="m 33,3 c -1.1,0 -2,0.9 -2,2 v 5 c 0,1.1 0.9,2 2,2 1.1,0 2,-0.9 2,-2 V 5 C 35,3.9 34.1,3 33,3 Z"
       id="path12"
       style="fill:#b0bec5" />
    <path
       d="m 15,3 c -1.1,0 -2,0.9 -2,2 v 5 c 0,1.1 0.9,2 2,2 1.1,0 2,-0.9 2,-2 V 5 C 17,3.9 16.1,3 15,3 Z"
       id="path14"
       style="fill:#b0bec5" />
    <g
       fill="#b0bec5"
       id="g28">
      <rect
         x="13"
         y="21"
         width="6"
         height="6"
         id="rect18" />
      <rect
         x="21"
         y="21"
         width="6"
         height="6"
         id="rect20" />
      <rect
         x="29"
         y="21"
         width="6"
         height="6"
         id="rect22" />
      <rect
         x="13"
         y="29"
         width="6"
         height="6"
         id="rect24" />
      <rect
         x="21"
         y="29"
         width="6"
         height="6"
         id="rect26" />
    </g>
    <rect
       x="29"
       y="29"
       fill="#f44336"
       width="6"
       height="6"
       id="rect30" />
    <rect
       style="fill:#ffffff;fill-opacity:1;stroke:#676e78;stroke-width:0.937974;stroke-opacity:1;paint-order:stroke fill markers"
       id="rect951"
       width="35.756165"
       height="20.528479"
       x="5.9872942"
       y="17.680071"
       rx="1.7533985"
       ry="0.21503073" />
    <rect
       style="fill:#c44d58;fill-opacity:1;stroke:#b71c1c;stroke-opacity:1;paint-order:stroke fill markers"
       id="rect1108"
       width="4.7851057"
       height="5.1339059"
       x="33.030262"
       y="30.673977"
       rx="1.7534"
       ry="0.215031" />
  </g>
</svg>
